<?xml version="1.0" encoding="UTF-8" standalone="no"?>
<!-- Created with Inkscape (http://www.inkscape.org/) -->

<svg
   xmlns:dc="http://purl.org/dc/elements/1.1/"
   xmlns:cc="http://creativecommons.org/ns#"
   xmlns:rdf="http://www.w3.org/1999/02/22-rdf-syntax-ns#"
   xmlns:svg="http://www.w3.org/2000/svg"
   xmlns="http://www.w3.org/2000/svg"
   xmlns:xlink="http://www.w3.org/1999/xlink"
   xmlns:sodipodi="http://sodipodi.sourceforge.net/DTD/sodipodi-0.dtd"
   xmlns:inkscape="http://www.inkscape.org/namespaces/inkscape"
   version="1.0"
   width="48"
   height="48"
   id="svg4912"
   sodipodi:version="0.32"
   inkscape:version="0.48.3.1 r9886"
   sodipodi:docname="application-illustrator.svg"
   inkscape:output_extension="org.inkscape.output.svg.inkscape">
  <metadata
     id="metadata62">
    <rdf:RDF>
      <cc:Work
         rdf:about="">
        <dc:format>image/svg+xml</dc:format>
        <dc:type
           rdf:resource="http://purl.org/dc/dcmitype/StillImage" />
        <dc:title></dc:title>
      </cc:Work>
    </rdf:RDF>
  </metadata>
  <sodipodi:namedview
     inkscape:window-height="1025"
     inkscape:window-width="1920"
     inkscape:pageshadow="2"
     inkscape:pageopacity="0.0"
     guidetolerance="10.0"
     gridtolerance="10.0"
     objecttolerance="10.0"
     borderopacity="1.0"
     bordercolor="#666666"
     pagecolor="#ffffff"
     id="base"
     showgrid="false"
     inkscape:zoom="5.1875"
     inkscape:cx="-11.756184"
     inkscape:cy="24"
     inkscape:window-x="0"
     inkscape:window-y="0"
     inkscape:current-layer="svg4912"
     inkscape:window-maximized="1" />
  <defs
     id="defs4914">
    <linearGradient
       id="linearGradient5048">
      <stop
         id="stop5050"
         style="stop-color:#000000;stop-opacity:0"
         offset="0" />
      <stop
         id="stop5056"
         style="stop-color:#000000;stop-opacity:1"
         offset="0.5" />
      <stop
         id="stop5052"
         style="stop-color:#000000;stop-opacity:0"
         offset="1" />
    </linearGradient>
    <linearGradient
       id="linearGradient5060">
      <stop
         id="stop5062"
         style="stop-color:#000000;stop-opacity:1"
         offset="0" />
      <stop
         id="stop5064"
         style="stop-color:#000000;stop-opacity:0"
         offset="1" />
    </linearGradient>
    <linearGradient
       id="linearGradient3104">
      <stop
         id="stop3106"
         style="stop-color:#aaaaaa;stop-opacity:1"
         offset="0" />
      <stop
         id="stop3108"
         style="stop-color:#c8c8c8;stop-opacity:1"
         offset="1" />
    </linearGradient>
    <linearGradient
       id="linearGradient3600">
      <stop
         id="stop3602"
         style="stop-color:#f4f4f4;stop-opacity:1"
         offset="0" />
      <stop
         id="stop3604"
         style="stop-color:#dbdbdb;stop-opacity:1"
         offset="1" />
    </linearGradient>
    <radialGradient
       cx="102"
       cy="112.3047"
       r="139.55859"
       id="XMLID_8_"
       gradientUnits="userSpaceOnUse">
      <stop
         id="stop41"
         style="stop-color:#b7b8b9;stop-opacity:1"
         offset="0" />
      <stop
         id="stop47"
         style="stop-color:#ececec;stop-opacity:1"
         offset="0.18851049" />
      <stop
         id="stop49"
         style="stop-color:#fafafa;stop-opacity:0"
         offset="0.25718147" />
      <stop
         id="stop51"
         style="stop-color:#ffffff;stop-opacity:0"
         offset="0.30111277" />
      <stop
         id="stop53"
         style="stop-color:#fafafa;stop-opacity:0"
         offset="0.53130001" />
      <stop
         id="stop55"
         style="stop-color:#ebecec;stop-opacity:0"
         offset="0.84490001" />
      <stop
         id="stop57"
         style="stop-color:#e1e2e3;stop-opacity:0"
         offset="1" />
    </radialGradient>
    <linearGradient
       id="linearGradient3211">
      <stop
         id="stop3213"
         style="stop-color:#ffffff;stop-opacity:1"
         offset="0" />
      <stop
         id="stop3215"
         style="stop-color:#ffffff;stop-opacity:0"
         offset="1" />
    </linearGradient>
    <filter
       height="1.3286875"
       y="-0.16434373"
       width="1.2969251"
       x="-0.14846256"
       id="filter3212">
      <feGaussianBlur
         id="feGaussianBlur3214"
         stdDeviation="0.77391625"
         inkscape:collect="always" />
    </filter>
    <linearGradient
       id="linearGradient8589">
      <stop
         id="stop8591"
         style="stop-color:#fefefe;stop-opacity:1"
         offset="0" />
      <stop
         id="stop8593"
         style="stop-color:#cbcbcb;stop-opacity:1"
         offset="1" />
    </linearGradient>
    <linearGradient
       id="linearGradient3555">
      <stop
         id="stop3557"
         style="stop-color:#aac5d5;stop-opacity:1;"
         offset="0" />
      <stop
         id="stop3559"
         style="stop-color:#ffffff;stop-opacity:0;"
         offset="1" />
    </linearGradient>
    <linearGradient
       inkscape:collect="always"
       xlink:href="#linearGradient8589"
       id="linearGradient2447"
       gradientUnits="userSpaceOnUse"
       gradientTransform="matrix(0.9976985,0,0,1.0406866,0.1638029,-1.1057939)"
       x1="32.892288"
       y1="8.0590115"
       x2="36.358372"
       y2="5.4565363" />
    <linearGradient
       inkscape:collect="always"
       xlink:href="#linearGradient3211"
       id="linearGradient2451"
       gradientUnits="userSpaceOnUse"
       gradientTransform="matrix(1,0,0,0.9777778,0,-0.9666693)"
       x1="24"
       y1="1.9999999"
       x2="24"
       y2="46.01725" />
    <radialGradient
       inkscape:collect="always"
       xlink:href="#XMLID_8_"
       id="radialGradient2454"
       gradientUnits="userSpaceOnUse"
       gradientTransform="matrix(0.3617022,0,0,-0.3907784,0.8510637,47.517004)"
       cx="102"
       cy="112.3047"
       r="139.55859" />
    <linearGradient
       inkscape:collect="always"
       xlink:href="#linearGradient3600"
       id="linearGradient2457"
       gradientUnits="userSpaceOnUse"
       gradientTransform="matrix(1,0,0,0.9561695,-1.0064697e-7,-1.914922)"
       x1="25.132275"
       y1="0.98520643"
       x2="25.132275"
       y2="47.013336" />
    <linearGradient
       inkscape:collect="always"
       xlink:href="#linearGradient3104"
       id="linearGradient2459"
       gradientUnits="userSpaceOnUse"
       gradientTransform="matrix(0.8074968,0,0,0.8948322,59.410232,-2.9805533)"
       x1="-51.786404"
       y1="50.786446"
       x2="-51.786404"
       y2="2.9062471" />
    <radialGradient
       inkscape:collect="always"
       xlink:href="#linearGradient5060"
       id="radialGradient2462"
       gradientUnits="userSpaceOnUse"
       gradientTransform="matrix(2.3039948e-2,0,0,1.4700216e-2,26.360882,37.040176)"
       cx="605.71429"
       cy="486.64789"
       fx="605.71429"
       fy="486.64789"
       r="117.14286" />
    <radialGradient
       inkscape:collect="always"
       xlink:href="#linearGradient5060"
       id="radialGradient2465"
       gradientUnits="userSpaceOnUse"
       gradientTransform="matrix(-2.3039943e-2,0,0,1.4700216e-2,21.62311,37.040176)"
       cx="605.71429"
       cy="486.64789"
       fx="605.71429"
       fy="486.64789"
       r="117.14286" />
    <linearGradient
       inkscape:collect="always"
       xlink:href="#linearGradient5048"
       id="linearGradient2468"
       gradientUnits="userSpaceOnUse"
       gradientTransform="matrix(6.7324884e-2,0,0,1.4700216e-2,-0.3411391,37.040146)"
       x1="302.85715"
       y1="366.64789"
       x2="302.85715"
       y2="609.50507" />
    <linearGradient
       inkscape:collect="always"
       xlink:href="#linearGradient4055-1"
       id="linearGradient4237"
       gradientUnits="userSpaceOnUse"
       gradientTransform="translate(-1.01015,0)"
       x1="305.57141"
       y1="441.96936"
       x2="305.57141"
       y2="469.24405" />
    <linearGradient
       id="linearGradient4055-1">
      <stop
         style="stop-color:#ce9374;stop-opacity:1;"
         offset="0"
         id="stop4057-6" />
      <stop
         style="stop-color:#e0ac91;stop-opacity:1;"
         offset="1"
         id="stop4059-8" />
    </linearGradient>
    <linearGradient
       inkscape:collect="always"
       xlink:href="#linearGradient4055"
       id="linearGradient4234"
       gradientUnits="userSpaceOnUse"
       gradientTransform="translate(-1.01015,0)"
       x1="305.57141"
       y1="441.96936"
       x2="305.57141"
       y2="469.24405" />
    <linearGradient
       id="linearGradient4055">
      <stop
         style="stop-color:#ce9374;stop-opacity:1;"
         offset="0"
         id="stop4057" />
      <stop
         style="stop-color:#e0ac91;stop-opacity:1;"
         offset="1"
         id="stop4059" />
    </linearGradient>
    <linearGradient
       inkscape:collect="always"
       xlink:href="#linearGradient4055-4"
       id="linearGradient4231"
       gradientUnits="userSpaceOnUse"
       gradientTransform="translate(-1.01015,0)"
       x1="305.57141"
       y1="441.96936"
       x2="305.57141"
       y2="469.24405" />
    <linearGradient
       id="linearGradient4055-4">
      <stop
         style="stop-color:#ce9374;stop-opacity:1;"
         offset="0"
         id="stop4057-2" />
      <stop
         style="stop-color:#e0ac91;stop-opacity:1;"
         offset="1"
         id="stop4059-3" />
    </linearGradient>
    <linearGradient
       inkscape:collect="always"
       xlink:href="#linearGradient4055-18"
       id="linearGradient4228"
       gradientUnits="userSpaceOnUse"
       gradientTransform="translate(-1.01015,0)"
       x1="305.57141"
       y1="441.96936"
       x2="305.57141"
       y2="469.24405" />
    <linearGradient
       id="linearGradient4055-18">
      <stop
         style="stop-color:#ce9374;stop-opacity:1;"
         offset="0"
         id="stop4057-9" />
      <stop
         style="stop-color:#e0ac91;stop-opacity:1;"
         offset="1"
         id="stop4059-2" />
    </linearGradient>
    <linearGradient
       inkscape:collect="always"
       xlink:href="#linearGradient3917"
       id="linearGradient4252"
       gradientUnits="userSpaceOnUse"
       x1="105.12686"
       y1="285.66019"
       x2="105.12686"
       y2="452.33536"
       gradientTransform="translate(214.68005,-9.142857)" />
    <linearGradient
       id="linearGradient3917">
      <stop
         style="stop-color:#ffe17f;stop-opacity:1;"
         offset="0"
         id="stop3919" />
      <stop
         style="stop-color:#ff9000;stop-opacity:1;"
         offset="1"
         id="stop3921" />
    </linearGradient>
    <linearGradient
       inkscape:collect="always"
       xlink:href="#linearGradient3925"
       id="linearGradient4249"
       gradientUnits="userSpaceOnUse"
       gradientTransform="matrix(1.0091564,0,0,1.0091564,213.71201,-12.52493)"
       x1="58.428551"
       y1="290.71933"
       x2="58.428551"
       y2="452.59372" />
    <linearGradient
       id="linearGradient3925">
      <stop
         style="stop-color:#ff4c4c;stop-opacity:1;"
         offset="0"
         id="stop3927" />
      <stop
         style="stop-color:#c70000;stop-opacity:1;"
         offset="1"
         id="stop3929" />
    </linearGradient>
    <linearGradient
       inkscape:collect="always"
       xlink:href="#linearGradient4002"
       id="linearGradient4246"
       gradientUnits="userSpaceOnUse"
       gradientTransform="translate(-0.31995,0.857143)"
       x1="320.5419"
       y1="275.55865"
       x2="320.5419"
       y2="379.52863" />
    <linearGradient
       id="linearGradient4002">
      <stop
         id="stop4004"
         offset="0"
         style="stop-color:#ffffff;stop-opacity:1;" />
      <stop
         id="stop4006"
         offset="1"
         style="stop-color:#ffffff;stop-opacity:0;" />
    </linearGradient>
    <linearGradient
       inkscape:collect="always"
       xlink:href="#linearGradient4303"
       id="linearGradient4357"
       gradientUnits="userSpaceOnUse"
       x1="387.71704"
       y1="368.49268"
       x2="387.71704"
       y2="410.01965" />
    <linearGradient
       id="linearGradient4303">
      <stop
         style="stop-color:#afc6e9;stop-opacity:1;"
         offset="0"
         id="stop4305" />
      <stop
         style="stop-color:#447acb;stop-opacity:1;"
         offset="1"
         id="stop4307" />
    </linearGradient>
    <linearGradient
       inkscape:collect="always"
       xlink:href="#linearGradient4311"
       id="linearGradient4407"
       gradientUnits="userSpaceOnUse"
       gradientTransform="translate(214.42751,-9.142857)"
       x1="214.72841"
       y1="399.30234"
       x2="214.72841"
       y2="403.85504" />
    <linearGradient
       id="linearGradient4311">
      <stop
         id="stop4313"
         offset="0"
         style="stop-color:#ffe17f;stop-opacity:1;" />
      <stop
         id="stop4315"
         offset="1"
         style="stop-color:#ff9000;stop-opacity:1;" />
    </linearGradient>
    <linearGradient
       inkscape:collect="always"
       xlink:href="#linearGradient4350"
       id="linearGradient4405"
       gradientUnits="userSpaceOnUse"
       gradientTransform="matrix(0.99700103,-0.07738832,0.07738832,0.99700103,183.5728,6.232497)"
       x1="183.41368"
       y1="413.94955"
       x2="183.41368"
       y2="423.58286" />
    <linearGradient
       id="linearGradient4350">
      <stop
         style="stop-color:#ffe17f;stop-opacity:1;"
         offset="0"
         id="stop4352" />
      <stop
         style="stop-color:#ff9000;stop-opacity:1;"
         offset="1"
         id="stop4354" />
    </linearGradient>
    <linearGradient
       y2="423.58286"
       x2="183.41368"
       y1="413.94955"
       x1="183.41368"
       gradientTransform="matrix(0.99700103,-0.07738832,0.07738832,0.99700103,183.5728,6.232497)"
       gradientUnits="userSpaceOnUse"
       id="linearGradient3172"
       xlink:href="#linearGradient4350"
       inkscape:collect="always" />
    <filter
       inkscape:collect="always"
       id="filter4015">
      <feGaussianBlur
         inkscape:collect="always"
         stdDeviation="0.39214489"
         id="feGaussianBlur4017" />
    </filter>
  </defs>
  <rect
     style="opacity:0.3;fill:url(#linearGradient2468);fill-opacity:1;fill-rule:nonzero;stroke:none;stroke-width:1;stroke-linecap:round;stroke-linejoin:miter;marker:none;marker-start:none;marker-mid:none;marker-end:none;stroke-miterlimit:4;stroke-dasharray:none;stroke-dashoffset:0;stroke-opacity:1;visibility:visible;display:inline;overflow:visible"
     id="rect2879"
     y="42.429947"
     x="7.7378473"
     height="3.5700529"
     width="32.508301" />
  <path
     style="opacity:0.3;fill:url(#radialGradient2465);fill-opacity:1;fill-rule:nonzero;stroke:none;stroke-width:1;stroke-linecap:round;stroke-linejoin:miter;marker:none;marker-start:none;marker-mid:none;marker-end:none;stroke-miterlimit:4;stroke-dasharray:none;stroke-dashoffset:0;stroke-opacity:1;visibility:visible;display:inline;overflow:visible"
     id="path2881"
     d="M 7.7378475,42.430102 C 7.7378475,42.430102 7.7378475,45.999958 7.7378475,45.999958 C 6.5513473,46.006679 4.869468,45.200135 4.869468,44.2148 C 4.869468,43.229467 6.1935126,42.430103 7.7378475,42.430102 z" />
  <path
     style="opacity:0.3;fill:url(#radialGradient2462);fill-opacity:1;fill-rule:nonzero;stroke:none;stroke-width:1;stroke-linecap:round;stroke-linejoin:miter;marker:none;marker-start:none;marker-mid:none;marker-end:none;stroke-miterlimit:4;stroke-dasharray:none;stroke-dashoffset:0;stroke-opacity:1;visibility:visible;display:inline;overflow:visible"
     id="path2883"
     d="M 40.246148,42.430102 C 40.246148,42.430102 40.246148,45.999958 40.246148,45.999958 C 41.432648,46.006679 43.114528,45.200135 43.114528,44.2148 C 43.114528,43.229467 41.790483,42.430103 40.246148,42.430102 z" />
  <path
     style="fill:url(#linearGradient2457);fill-opacity:1;stroke:url(#linearGradient2459);stroke-width:0.99992186;stroke-linecap:butt;stroke-linejoin:round;stroke-miterlimit:4;stroke-dasharray:none;stroke-dashoffset:0;stroke-opacity:1;display:inline"
     id="path4160"
     d="M 6.4999609,0.49719878 C 14.520256,0.49719878 22.540551,0.49719878 30.560847,0.49719878 C 31.96778,0.97185188 39.526301,6.3794034 41.500042,10.123605 C 41.500042,21.583338 41.500042,33.04307 41.500042,44.502803 C 29.833348,44.502803 18.166655,44.502803 6.4999609,44.502803 C 6.4999609,29.834268 6.4999609,15.165733 6.4999609,0.49719878 z" />
  <path
     style="fill:url(#radialGradient2454);fill-opacity:1"
     id="path4191"
     d="M 7.3617017,44 C 7.1624047,44 6.9999997,43.824541 6.9999997,43.60922 L 6.9999997,1.4051701 C 6.9999997,1.1894613 7.1624047,1.0143926 7.3617017,1.0143926 C 14.844793,1.1224073 23.137385,0.85281757 30.611384,1.0412872 L 40.894021,9.9073127 L 41,43.60922 C 41,43.824541 40.837957,44 40.638297,44 L 7.3617017,44 z" />
  <path
     style="opacity:0.6;fill:none;fill-opacity:1;stroke:url(#linearGradient2451);stroke-width:0.9999218;stroke-linecap:butt;stroke-linejoin:round;stroke-miterlimit:4;stroke-dasharray:none;stroke-dashoffset:0;stroke-opacity:1;display:inline"
     id="path2435"
     d="M 40.500039,10.258811 C 40.500039,21.207848 40.500039,32.573221 40.500039,43.522258 C 29.500013,43.522258 18.499987,43.522258 7.4999609,43.522258 C 7.4999609,29.507417 7.4999609,15.492577 7.4999609,1.4777367 C 15.061954,1.4777367 22.804295,1.4777367 30.366289,1.4777367" />
  <path
     style="opacity:0.4;fill:#000000;fill-opacity:1;fill-rule:evenodd;stroke:none;stroke-width:1px;stroke-linecap:butt;stroke-linejoin:miter;stroke-opacity:1;display:inline;filter:url(#filter3212)"
     id="path12038"
     d="M 28.617256,0.92125832 C 32.899778,0.92125832 30.770506,9.4044296 30.770506,9.4044296 C 30.770506,9.4044296 41.128148,7.6020829 41.128148,12.223174 C 41.128148,9.6134507 29.825844,1.4945784 28.617256,0.92125832 z" />
  <path
     style="fill:url(#linearGradient2447);fill-opacity:1;fill-rule:evenodd;stroke:none;stroke-width:1px;stroke-linecap:butt;stroke-linejoin:miter;stroke-opacity:1;display:inline"
     id="path4474"
     d="M 28.617256,0.92125832 C 31.803749,0.92125832 30.953016,8.5831368 30.953016,8.5831368 C 30.953016,8.5831368 41.128148,7.6020829 41.128148,12.223174 C 41.128148,11.097235 41.214061,10.290929 40.994371,9.9395812 C 39.416058,7.4154025 32.598855,1.7511811 30.137071,1.008793 C 29.952849,0.95323837 29.544367,0.92125832 28.617256,0.92125832 z" />
  <path
     style="fill:#000000;fill-opacity:1;filter:url(#filter4015);opacity:0.53"
     d="m 22.854292,11.399473 c -0.195185,0 -0.395629,0.01515 -0.59375,0.03125 -0.03676,9.11e-4 -0.08305,-0.0029 -0.125,0 -1.14002,0.111398 -2.315681,0.4934 -3.40625,1.0625 -0.248467,0.129968 -0.483153,0.289546 -0.71875,0.4375 -0.71249,0.44712 -1.395179,0.961213 -1.96875,1.5625 -0.005,0.0052 0.005,0.02602 0,0.03125 -0.17403,0.18341 -0.343374,0.335825 -0.5,0.53125 -0.01961,0.02433 -0.01195,0.06927 -0.03125,0.09375 -0.04664,0.0595 -0.111353,0.09572 -0.15625,0.15625 -0.07082,0.09548 -0.121233,0.214424 -0.1875,0.3125 -0.06337,0.09283 -0.128753,0.186824 -0.1875,0.28125 -0.234437,0.379501 -0.459782,0.74906 -0.625,1.15625 -0.09076,0.217298 -0.150826,0.441151 -0.21875,0.65625 -0.01878,0.06116 -0.04531,0.125993 -0.0625,0.1875 -0.0048,0.01694 0.0047,0.0143 0,0.03125 -0.006,0.0222 -0.02544,0.04026 -0.03125,0.0625 -0.0026,0.0087 0.0023,0.02256 0,0.03125 -0.0056,0.02169 -0.02588,0.04078 -0.03125,0.0625 -0.0129,0.05196 -0.0194,0.103855 -0.03125,0.15625 -0.01429,0.06319 -0.01865,0.124058 -0.03125,0.1875 -0.006,0.02999 -0.02568,0.06371 -0.03125,0.09375 -0.0122,0.06597 -0.02089,0.15257 -0.03125,0.21875 -0.01102,0.07216 -0.02245,0.146389 -0.03125,0.21875 -0.03359,0.285773 -0.03086,0.571796 -0.03125,0.875 1.68e-4,0.0314 -6.02e-4,0.06236 0,0.09375 5.84e-4,0.03919 -0.0013,0.08584 0,0.125 2.31e-4,0.01403 -3.47e-4,0.01741 0,0.03125 0.0014,0.0334 -0.0018,0.06036 0,0.09375 0.02895,0.523541 0.125016,1.054357 0.28125,1.5625 0.02227,0.07239 0.03756,0.146913 0.0625,0.21875 0.06579,0.188769 0.165568,0.378287 0.25,0.5625 0.03823,0.0828 0.05166,0.168264 0.09375,0.25 0.006,0.01186 0.02516,0.01941 0.03125,0.03125 1.118169,2.148452 3.121062,3.981868 4.28125,5.4375 0.271555,0.340671 0.475417,0.67752 0.65625,0.96875 0.03155,0.05114 0.06475,0.107117 0.09375,0.15625 0.130834,0.221657 0.259842,0.451366 0.34375,0.625 0.02946,0.06257 0.06991,0.164179 0.09375,0.21875 0.0076,0.01606 0.02409,0.047 0.03125,0.0625 0.06365,0.163162 0.15625,0.40625 0.15625,0.40625 l 0.5,0 c 0.0085,0.09692 0.08322,0.738043 0.125,1.28125 0.06628,0.862416 0.09375,1.625 0.09375,1.625 0,0 -0.150939,0.109023 -0.21875,0.53125 -0.329686,0.147479 -0.46875,0.375 -0.46875,0.375 0,0 -0.180372,-0.440782 -0.5625,-0.5625 -0.531677,-0.169296 -0.9375,0.21875 -0.9375,0.21875 0,0 -0.449321,-0.821738 -1.28125,-0.8125 -1.151004,0.0127 -1.375,0.9375 -1.375,0.9375 0,0 -0.464746,-0.559931 -1.15625,-0.34375 -0.908608,0.283969 -0.6875,1.03125 -0.6875,1.03125 0,0 -1.838294,-0.133679 -1.625,2.1875 0.194355,2.114466 2.53125,1.5 2.53125,1.5 0,0 0.751382,0.935305 1.625,0.9375 1.172022,0.0029 1.625,-0.6875 1.625,-0.6875 0,0 1.230851,0.812287 2.1875,0.5625 1.2554,-0.327621 1.40625,-1.5 1.40625,-1.5 0,0 0.618859,0.256907 1.03125,-0.25 0.509029,0.01818 0.9375,-0.09375 0.9375,-0.09375 0,0 0.814208,1.02894 1.78125,1.03125 1.297435,0.0031 1.78125,-0.78125 1.78125,-0.78125 0,0 1.378534,0.932597 2.4375,0.65625 1.389589,-0.362728 1.53125,-1.6875 1.53125,-1.6875 0,0 1.030127,0.40828 1.40625,-0.75 0.330162,-1.016815 -0.5,-1.53125 -0.5,-1.53125 0,0 -0.07524,-1.617501 -0.90625,-1.9375 -1.431163,-0.551078 -1.90625,0.40625 -1.90625,0.40625 0,0 -0.233241,-0.521483 -0.65625,-0.65625 -0.588493,-0.187426 -1.03125,0.25 -1.03125,0.25 0,0 -0.485401,-0.885162 -1.40625,-0.875 -1.274108,0.01432 -1.53125,1 -1.53125,1 0,0 -0.07917,-0.07062 -0.1875,-0.15625 0.04173,-0.23703 0.11313,-0.498267 0.09375,-0.75 -0.04686,-0.609215 0.06168,-1.035329 0.09375,-1.15625 l 0.78125,0 c 0,0 0.787192,-1.427701 2.09375,-3.25 0.852996,-1.189606 2.069284,-2.457412 2.90625,-3.96875 0.06991,0.06556 0.150989,0.118828 0.21875,0.1875 0.167707,0.153279 0.301495,0.335469 0.46875,0.5 0.162358,0.173519 0.284898,0.349353 0.4375,0.53125 0.17997,0.232897 0.388328,0.446567 0.40625,0.75 -0.05867,-0.198414 -0.189427,-0.391904 -0.34375,-0.53125 -0.166273,0.06781 -0.303333,0.164138 -0.46875,0.21875 -0.178262,0.122466 -0.332921,0.1766 -0.5,0.28125 -0.235668,0.10484 -0.490505,0.260122 -0.71875,0.375 -0.140197,0.137245 -0.490948,0.198655 -0.46875,0.40625 0.240474,0.356906 0.625199,0.682298 1.09375,0.625 0.294842,-0.0028 0.570201,-0.172 0.78125,-0.375 l 0.15625,-0.21875 -0.1875,-0.09375 c -0.07801,-0.05226 -0.429203,-0.296574 -0.21875,-0.15625 0.177907,0.09623 0.397298,0.143679 0.59375,0.1875 -0.06188,0.09567 -0.08004,0.222277 -0.15625,0.3125 -0.04965,0.142717 -0.245038,0.195165 -0.3125,0.28125 0.09347,0.09185 0.170345,0.231428 0.0625,0.34375 -0.04723,0.06598 -0.271508,0.251682 -0.0625,0.21875 0.204603,-0.0751 0.33636,-0.266637 0.40625,-0.46875 0.102237,-0.07595 0.07404,0.203283 0,0.25 -0.03639,0.06969 -0.266721,0.159822 -0.125,0.21875 0.113235,-0.01888 0.224525,-0.0832 0.3125,-0.15625 0.159993,-0.143552 0.214522,-0.384379 0.21875,-0.59375 0.0041,-0.13002 0.09905,-0.232606 0.15625,-0.34375 0.31747,-0.0018 0.578142,-0.03722 0.90625,-0.09375 0.287368,-0.09698 0.590798,-0.199481 0.84375,-0.375 0.157334,-0.09202 0.347571,-0.173231 0.5,-0.3125 0.176991,-0.15066 0.398867,-0.258894 0.59375,-0.375 0.140283,0.01508 0.262248,-0.04317 0.28125,-0.125 0.09184,0.05736 0.213297,0.02857 0.3125,0.0625 0.07789,0.03265 0.218321,0.09402 0.1875,-0.0625 -0.04978,-0.113852 -0.138372,-0.191522 -0.25,-0.25 -0.06456,-0.01509 -0.09448,-0.07226 -0.15625,-0.09375 -0.0077,0.0045 -0.02346,-0.0045 -0.03125,0 0.04256,-0.07076 0.0666,-0.15796 -0.0625,-0.25 -0.187785,-0.250518 -0.530958,-0.332927 -0.84375,-0.3125 -0.309339,0.05918 -0.01117,-0.320464 0.09375,-0.4375 0.161864,-0.207369 0.365106,-0.378649 0.5625,-0.53125 0.279149,-0.192609 0.579058,-0.367568 0.90625,-0.46875 0.08503,-0.07383 0.448364,-0.07445 0.34375,-0.1875 -0.377566,-0.0045 -0.764155,-0.04695 -1.125,0.0625 -0.246716,0.02708 -0.520358,0.136865 -0.75,0.21875 -0.201932,0.0807 -0.431223,0.170946 -0.59375,0.28125 -0.299606,0.134133 -0.60208,0.341667 -0.875,0.53125 -0.337988,0.12534 -0.03014,0.372595 0.125,0.53125 0.197623,0.17914 0.415066,0.354424 0.65625,0.46875 -0.182621,-0.06802 -0.38677,-0.167788 -0.53125,-0.28125 -0.216145,-0.143286 -0.368976,-0.327469 -0.53125,-0.53125 -0.26446,-0.231016 -0.519462,-0.479114 -0.78125,-0.71875 -0.145264,-0.162274 -0.377144,-0.296959 -0.5625,-0.4375 -0.138674,-0.06532 -0.257829,-0.198108 -0.40625,-0.28125 0.546961,-1.376674 0.77169,-2.700251 0.5625,-3.96875 -0.0074,-0.04802 -0.0223,-0.108445 -0.03125,-0.15625 -0.05111,-0.263635 -0.129471,-0.522103 -0.21875,-0.78125 -0.01313,-0.04016 -0.01691,-0.08473 -0.03125,-0.125 -0.05303,-0.14351 -0.12221,-0.295353 -0.1875,-0.4375 -0.01841,-0.03985 -0.04299,-0.08512 -0.0625,-0.125 -0.07593,-0.156122 -0.158717,-0.314263 -0.25,-0.46875 -0.149024,-0.251625 -0.31096,-0.502057 -0.5,-0.75 -0.349675,-0.454324 -0.812315,-0.942542 -1.375,-1.4375 -0.117583,-0.10305 -0.251197,-0.21251 -0.375,-0.3125 -0.0863,-0.0698 -0.159851,-0.150074 -0.25,-0.21875 -0.01839,-0.01405 -0.04399,-0.01727 -0.0625,-0.03125 -0.188834,-0.142044 -0.389043,-0.302963 -0.59375,-0.4375 -0.117231,-0.07798 -0.189359,-0.127576 -0.34375,-0.21875 -1.086691,-0.657919 -2.360527,-1.148906 -3.78125,-1.3125 -0.06802,-0.01768 -0.147776,-0.02389 -0.28125,-0.03125 -0.104025,-0.0084 -0.207079,0.0045 -0.3125,0 -0.11688,-0.0094 -0.2258,-0.03125 -0.34375,-0.03125 z m 9.25,14.78125 c 0.07213,0.01338 0.146047,0.02103 0.21875,0.03125 -0.03629,0.0381 -0.06088,0.08219 -0.0625,0.125 -0.05055,0.118459 -0.159507,0.224461 -0.25,0.3125 -0.137117,0.04749 -0.0098,-0.188079 0,-0.25 0.01878,-0.07154 0.102499,-0.160477 0.09375,-0.21875 z m -10.84375,4.5 1.0625,0 c -0.0068,0.134866 -0.04035,0.756649 0,1.28125 0.06629,0.862416 0,1.625 0,1.625 l -0.8125,0 c 0,0 -0.06368,-0.828524 -0.125,-1.625 -0.05007,-0.650987 -0.117507,-1.197433 -0.125,-1.28125 z m 1.625,0 1.5,0 c -0.02522,0.13341 -0.165407,0.755889 -0.125,1.28125 0.01196,0.155594 -0.0045,0.261488 0,0.40625 -0.173363,-0.0396 -0.371333,-0.06952 -0.59375,0 -0.502865,0.15717 -0.683959,0.439186 -0.75,0.6875 0.007,-0.301465 -0.0014,-0.706566 -0.03125,-1.09375 -0.04798,-0.623773 -0.0086,-1.157159 0,-1.28125 z m 0,2.75 c 0.0071,0.05163 0.03125,0.09375 0.03125,0.09375 0,0 -0.02883,1.29e-4 -0.03125,0 6.46e-4,-0.0092 -0.0014,-0.07182 0,-0.09375 z"
     id="path3154"
     inkscape:connector-curvature="0" />
  <g
     transform="matrix(0.11548152,0,0,0.11548152,-14.140838,-20.528817)"
     id="g3093">
    <path
       style="fill:#d0e8f7;fill-opacity:1"
       id="path29"
       d="m 338.58074,461.43144 c 0,0 -4.44,-5.393 -11.069,-3.321 -8.709,2.722 -6.642,9.962 -6.642,9.962 0,0 -17.542,-1.217 -15.498,21.032 1.863,20.268 24.353,14.391 24.353,14.391 0,0 7.123,8.835 15.497,8.855 11.235,0.027 15.497,-6.642 15.497,-6.642 0,0 11.862,7.928 21.032,5.535 12.033,-3.141 13.284,-14.39 13.284,-14.39 0,0 8.919,3.388 12.176,-6.642 2.859,-8.805 -4.428,-13.284 -4.428,-13.284 0,0 -0.553,-13.833 -7.749,-16.604 -12.393,-4.772 -16.604,3.321 -16.604,3.321 0,0 -1.872,-4.368 -5.535,-5.535 -5.096,-1.623 -8.855,2.214 -8.855,2.214 0,0 -4.202,-7.837 -12.176,-7.749 -11.033,0.124 -13.283,8.857 -13.283,8.857 z"
       clip-rule="evenodd"
       inkscape:connector-curvature="0" />
    <path
       style="color:#000000;fill:url(#linearGradient4237);fill-opacity:1;fill-rule:nonzero;marker:none;visibility:visible;display:inline;overflow:visible;enable-background:accumulate"
       id="path19"
       d="m 332.63959,468.57644 c 0,0 0.574,-6.532 0,-14 -0.388,-5.045 1,-12 1,-12 h 5 c 0,0 -1.465,4.954 -1,11 0.213,2.767 -0.781,5.446 -1,8 -0.326,3.813 0,7 0,7 h -4 z"
       clip-rule="evenodd"
       inkscape:connector-curvature="0" />
    <path
       style="fill:url(#linearGradient4234);fill-opacity:1"
       id="path21"
       d="m 303.63959,468.57644 c 0,0 -0.426,-6.532 -1,-14 -0.388,-5.045 -1,-12 -1,-12 h 5 c 0,0 0.535,5.954 1,12 0.531,6.897 1,14 1,14 h -5 z"
       clip-rule="evenodd"
       inkscape:connector-curvature="0" />
    <path
       style="color:#000000;fill:url(#linearGradient4231);fill-opacity:1;fill-rule:nonzero;marker:none;visibility:visible;display:inline;overflow:visible;enable-background:accumulate"
       id="path23"
       d="m 315.63959,468.57644 c 0,0 0.574,-6.532 0,-14 -0.388,-5.045 0,-12 0,-12 h 5 c 0,0 -0.465,5.954 0,12 0.531,6.897 0,14 0,14 h -5 z"
       clip-rule="evenodd"
       inkscape:connector-curvature="0" />
    <path
       style="color:#000000;fill:url(#linearGradient4228);fill-opacity:1;fill-rule:nonzero;marker:none;visibility:visible;display:inline;overflow:visible;enable-background:accumulate"
       id="path25"
       d="m 303.63959,468.57644 c 0,0 -1.442,1.097 -2,5 -0.871,6.093 -1,16 -1,16 0,0 10.779,2.262 21,2 9.228,-0.237 18,-3 18,-3 0,0 -0.448,-5.483 -1,-11 -0.434,-4.34 -1,-9 -1,-9 h -34 z"
       clip-rule="evenodd"
       inkscape:connector-curvature="0" />
    <path
       style="color:#000000;fill:#d38d5f;fill-opacity:1;fill-rule:nonzero;marker:none;visibility:visible;display:inline;overflow:visible;enable-background:accumulate"
       id="path27"
       d="m 338.63959,474.57644 c 0,0 -11.834,1 -21,1 -9.333,0 -16,-1 -16,-1 l -1,12 c 0,0 9.566,0.535 20,0 8.952,-0.459 19,-2 19,-2 l -1,-10 z"
       clip-rule="evenodd"
       inkscape:connector-curvature="0" />
    <path
       style="fill:url(#linearGradient4252);fill-opacity:1"
       id="path3"
       d="m 297.32979,443.43358 c 0,0 -2.594,-9.2 -12,-21 -10.104,-12.677 -27.45,-28.584 -37.101,-47.327 -10.716,-20.811 -6.91,-45.784 7.101,-64.673 15.033,-20.267 41.504,-34 65,-34 31.178,0 55.833,20.491 67,35 15.343,19.935 14.597,41.462 3.64,64.823 -7.118,15.175 -19.384,27.663 -27.64,39.177 -11.314,15.78 -18,28 -18,28 h -48 z"
       clip-rule="evenodd"
       inkscape:connector-curvature="0" />
    <path
       id="path3909"
       d="m 323.43003,276.71487 1.125,2.84375 c 5.51029,13.97237 9.72934,31.87119 11.46875,48.71875 1.97138,19.09418 1.47091,29.31393 -2.9375,62.4375 -2.64547,19.87738 -4.46378,35.74851 -5.53125,47.84375 l -0.4375,4.875 5.96875,0 0.5,-1.78125 c 0.95114,-3.47066 4.07095,-12.8391 5.75,-17.28125 2.90131,-7.67583 4.70147,-11.76262 10.5625,-23.71875 3.1951,-6.5178 6.33474,-13.11441 6.96875,-14.65625 5.02771,-12.22678 7.3125,-24.23897 7.3125,-38.4375 0,-2.44687 -0.1062,-5.64217 -0.25,-7.09375 -1.20755,-12.19017 -8.01889,-31.31339 -15.625,-43.90625 -4.7901,-7.93061 -11.91331,-15.27783 -18,-18.5625 -1.66386,-0.8979 -2.03215,-0.99762 -4.34375,-1.125 l -2.53125,-0.15625 z m -8.28125,0.125 c -0.80389,0.0195 -1.82545,0.0996 -2.6875,0.21875 -0.77092,0.10657 -1.28997,0.19895 -1.15625,0.21875 0.13372,0.0197 -0.60303,0.55741 -1.625,1.1875 -4.37111,2.69497 -9.79097,7.2151 -13.5625,11.34375 -11.09709,12.14781 -17.28519,26.03238 -19.375,43.4375 -0.41803,3.48237 -0.41891,15.2218 0,20 0.83661,9.54245 2.35224,17.16229 5,25.125 1.94201,5.84025 3.96202,10.37897 8.5,19.21875 10.40321,20.26499 14.19909,29.29014 18.65625,44.28125 l 0.46875,1.5625 6.875,0 -0.0625,-0.40625 c -0.0786,-0.38546 -1.69227,-9.82542 -3.59375,-20.96875 -1.90147,-11.14334 -4.25478,-24.77588 -5.21875,-30.3125 -4.73298,-27.18414 -6.4091,-43.10998 -6.03125,-57.28125 0.46336,-17.37837 3.53086,-32.8345 9.125,-45.9375 1.39461,-3.26657 4.21568,-8.73541 5.34375,-10.375 0.40461,-0.58809 0.71875,-1.13895 0.71875,-1.21875 0,-0.0982 -0.57111,-0.11326 -1.375,-0.0937 z m -19.625,4.40625 c -0.4987,0.10483 -1.78126,0.60472 -3.84375,1.46875 -18.59018,7.78788 -34.28635,21.6845 -42.3125,37.46875 -1.88324,3.70357 -3.36888,7.29303 -4.5,10.875 -0.16264,0.52963 -0.3199,1.06113 -0.46875,1.59375 -0.0419,0.1467 -0.0843,0.29072 -0.125,0.4375 -0.0681,0.25038 -0.15372,0.49903 -0.21875,0.75 -0.16747,0.64634 -0.32178,1.28759 -0.46875,1.9375 -0.12374,0.54718 -0.23468,1.10688 -0.34375,1.65625 -0.0516,0.25969 -0.10799,0.52112 -0.15625,0.78125 -0.002,0.0101 0.002,0.0211 0,0.0312 -0.10567,0.57122 -0.19159,1.14567 -0.28125,1.71875 -0.099,0.65375 -0.20353,1.30759 -0.28125,1.96875 -0.29091,2.47462 -0.43412,4.99944 -0.4375,7.625 0.002,0.5938 0.0111,1.18789 0.0312,1.78125 0.002,0.12147 -0.003,0.25519 0,0.375 0.0117,0.28927 0.0153,0.58592 0.0312,0.875 0.42702,7.7212 2.41012,15.37747 6.09375,22.53125 9.651,18.743 26.98975,34.6355 37.09375,47.3125 5.6307,7.06382 8.78419,13.15298 10.4375,16.9375 0.0655,0.13907 0.15671,0.30321 0.21875,0.4375 0.0114,0.0266 0.02,0.0674 0.0312,0.0937 0.39773,0.8651 0.73601,1.62569 0.9375,2.1875 l 0.5,1.34375 3.4375,0 c -1.5e-4,-0.0758 -0.0233,-0.15559 -0.0625,-0.28125 -0.89493,-2.87273 -14.70931,-28.23444 -18.875,-34.65625 -0.92934,-1.43269 -3.73297,-5.55073 -6.21875,-9.125 -7.80248,-11.2191 -11.40331,-17.02032 -13.9375,-22.40625 -5.36299,-11.39799 -7.52637,-20.6515 -7.5625,-32.375 -0.0168,-5.45591 0.30113,-8.54434 1.40625,-13.21875 1.33252,-5.63628 4.37932,-12.89069 7.71875,-18.375 6.79552,-11.16021 18.55871,-22.75692 31.375,-30.9375 1.00558,-0.64186 1.27995,-0.91733 0.78125,-0.8125 z m 59.625,4 c -0.0627,0.0627 0.72478,0.69352 1.75,1.40625 10.60645,7.37366 19.07443,18.00073 23.6875,29.6875 3.80901,9.64976 5.13455,19.00099 4.53125,32.3125 -0.60749,13.40395 -1.96304,19.47068 -6.5,28.96875 -2.94699,6.1695 -6.02196,11.03876 -15.5,24.6875 -6.00231,8.64357 -9.612,14.79875 -14.625,24.9375 -2.44151,4.93795 -5.86745,12.56827 -7.15625,15.90625 -0.0572,0.14828 0.13043,0.23832 0.59375,0.28125 l 3.0625,0 1.71875,-2.96875 c 3.66413,-6.24117 10.28517,-16.46566 14.625,-22.59375 2.99581,-4.23025 4.45963,-6.16686 10.5,-13.78125 13.00485,-16.39371 17.40748,-23.39598 21.78125,-34.65625 3.63234,-9.35144 5.07115,-16.37366 5.09375,-24.96875 0.0177,-6.73608 -0.56044,-10.50105 -2.53125,-16.53125 -4.2931,-13.13581 -16.12024,-26.99967 -32.09375,-37.625 -2.96769,-1.97407 -8.74725,-5.25274 -8.9375,-5.0625 z"
       style="color:#000000;fill:url(#linearGradient4249);fill-opacity:1;fill-rule:nonzero;marker:none;visibility:visible;display:inline;overflow:visible;enable-background:accumulate"
       inkscape:connector-curvature="0" />
    <path
       style="fill:url(#linearGradient4246);fill-opacity:1"
       id="path17"
       d="m 318.32979,380.43358 c 25.136,0 63,-13.102 63,-31 0,-30.627 -28.316,-73 -61,-73 -34.539,0 -61,53.629 -61,73 0,16.252 43.949,31 59,31 z"
       clip-rule="evenodd"
       inkscape:connector-curvature="0" />
    <path
       style="fill:#ecf7fb;fill-opacity:0.84313725"
       id="path31"
       d="m 261.64974,474.57644 c 0,0 -4.012,-4.872 -10,-3 -7.868,2.459 -6,9 -6,9 0,0 -15.847,-1.1 -14,19 1.683,18.31 22,13 22,13 0,0 6.435,7.981 14,8 10.149,0.025 14,-6 14,-6 0,0 10.716,7.163 19,5 10.871,-2.837 12,-13 12,-13 0,0 8.058,3.061 11,-6 2.583,-7.954 -4,-12 -4,-12 0,0 -0.5,-12.497 -7,-15 -11.195,-4.311 -15,3 -15,3 0,0 -1.691,-3.946 -5,-5 -4.604,-1.466 -8,2 -8,2 0,0 -3.796,-7.08 -11,-7 -9.967,0.11 -12,8 -12,8 z"
       clip-rule="evenodd"
       inkscape:connector-curvature="0" />
    <path
       sodipodi:nodetypes="cccccccccccccccccccccccccccccccccccccccccccccccccccccc"
       inkscape:connector-curvature="0"
       id="path3044"
       d="m 351.82214,357.66194 c -0.64231,1.09355 3.02954,1.52625 4.15936,2.24887 2.51522,1.17417 5.06122,2.22143 7.52237,3.5547 2.75526,1.32123 5.32475,2.86654 7.98003,4.38332 2.22428,1.40801 4.51213,2.89039 6.69727,4.44134 1.91591,1.36005 3.79384,2.86195 5.668,4.34265 2.27724,1.91338 4.47217,3.81681 6.54543,5.91794 1.45224,1.3273 2.64431,2.84421 4.09264,4.26895 1.40592,1.50257 2.50249,3.04205 3.82393,4.61717 1.55843,2.01675 3.21163,4.04899 3.36682,6.67653 -0.50808,-1.71814 -1.4849,-3.52214 -2.82125,-4.72879 -1.43982,0.58723 -2.55154,1.32608 -3.98395,1.79899 -1.54364,1.06048 -3.11833,1.65013 -4.56513,2.55633 -2.04074,0.90785 -4.0026,2.248 -5.97906,3.24277 -1.21402,1.18846 -4.24583,1.57918 -4.05361,3.37683 2.08236,3.09059 5.28636,6.13595 9.34373,5.63978 2.55315,-0.0242 4.81755,-1.59779 6.64511,-3.35565 l 1.46782,-1.76598 -1.50302,-0.91288 c -0.67555,-0.45251 -3.70462,-2.63207 -1.88223,-1.41695 2.42756,1.31301 5.13975,1.89124 7.86787,2.27483 3.44058,0.20106 6.0236,-0.40371 9.35468,-0.97763 2.48843,-0.83979 5.12018,-1.60315 7.31059,-3.12304 1.36242,-0.79688 3.0227,-1.55751 4.34264,-2.7635 1.53264,-1.30462 3.34596,-2.09648 5.03353,-3.10189 2.08245,0.22381 3.92937,-1.92796 1.05741,-2.53791 1.03169,-0.55519 3.92331,-2.00855 1.38928,-3.8151 -1.6261,-2.16933 -4.61653,-2.80532 -7.32512,-2.62843 -2.67869,0.51244 0.11369,-2.79345 1.02221,-3.80691 1.40164,-1.79569 2.99992,-3.23975 4.70924,-4.56119 2.41726,-1.66787 5.01813,-3.19514 7.85142,-4.07131 0.73632,-0.63933 3.7842,-0.75877 2.8783,-1.73769 -3.26949,-0.0392 -6.62511,-0.2921 -9.74981,0.65568 -2.13641,0.23447 -4.30687,1.07451 -6.29543,1.78358 -1.74861,0.69883 -3.88698,1.51926 -5.29436,2.47442 -2.59441,1.16151 -4.99662,2.93361 -7.35994,4.57528 -2.92677,1.08537 -0.36407,3.2378 0.97938,4.61166 1.7113,1.55124 3.44608,3.0907 5.53459,4.08069 -1.58139,-0.58898 -3.11269,-1.34396 -4.3638,-2.32647 -1.87169,-1.24077 -3.29451,-2.92531 -4.69971,-4.68993 -2.29006,-2.00046 -4.48921,-4.16208 -6.75613,-6.23718 -1.2579,-1.4052 -3.22397,-2.57191 -4.82904,-3.78891 -1.26476,-0.59576 -2.63054,-1.61323 -3.98315,-2.34438 -2.73284,-1.4765 -5.40557,-2.83746 -8.22706,-4.01131 -2.53846,-1.00016 -5.17356,-2.17723 -7.83772,-2.91108 -2.72752,-0.98664 -5.52191,-1.71425 -8.30869,-2.48763 -3.71322,-0.99999 -7.43997,-1.73959 -11.21905,-2.4889 -1.86298,-0.22114 -3.76434,-0.59753 -5.60639,-0.93167 z m 41.2199,44.0116 0.10985,0.0686 z m 0.19035,0.16919 0.0942,0.0735 z"
       style="color:#000000;fill:url(#linearGradient4357);fill-opacity:1;fill-rule:nonzero;stroke:none;stroke-width:6.5;marker:none;visibility:visible;display:inline;overflow:visible;enable-background:accumulate" />
    <path
       inkscape:connector-curvature="0"
       id="path3084"
       d="m 431.49122,390.60543 c -0.78312,0.46232 -1.64184,0.87552 -2.37473,1.31255 -0.11725,0.92898 1.1423,1.20807 1.62713,1.83271 0.79528,0.49674 1.76854,0.16851 2.62758,0.46236 0.67452,0.28277 2.10095,0.9007 1.83406,-0.45466 -0.43107,-0.98589 -1.2495,-1.89281 -2.21613,-2.39919 -0.55908,-0.1307 -0.963,-0.56771 -1.49791,-0.75377 z"
       style="color:#000000;fill:url(#linearGradient4407);fill-opacity:1;fill-rule:nonzero;stroke:none;stroke-width:1;marker:none;visibility:visible;display:inline;overflow:visible;enable-background:accumulate" />
    <path
       inkscape:connector-curvature="0"
       id="path3093"
       d="m 399.40803,403.95423 c -0.66739,0.84997 -0.70184,2.02984 -1.41553,2.87477 -0.42995,1.23584 -1.99587,1.83262 -2.58005,2.57806 0.80941,0.7954 1.30787,1.88876 0.37396,2.8614 -0.40896,0.5713 -2.38755,2.20826 -0.57767,1.92309 1.77174,-0.65033 3.03786,-2.2912 3.64307,-4.04137 0.88531,-0.6577 0.71388,1.73142 0.0725,2.13596 -0.31514,0.60351 -2.3709,1.46813 -1.14368,1.97841 0.98055,-0.16347 1.83639,-0.87098 2.5982,-1.50357 1.38544,-1.24308 1.94594,-3.12508 1.98255,-4.93811 0.0354,-1.12589 0.76892,-2.0432 1.2643,-3.00564 -0.55779,-1.28582 -1.90215,0.17683 -1.93612,1.0726 -0.43772,1.02579 -1.24812,1.82034 -2.03174,2.5827 -1.18735,0.41127 -0.0522,-1.50881 0.0326,-2.04501 0.24389,-0.92924 1.78205,-2.38733 -0.0726,-2.39998 -0.0696,-0.0253 -0.14006,-0.0487 -0.20983,-0.0733 z"
       style="color:#000000;fill:url(#linearGradient3172);fill-opacity:1;fill-rule:nonzero;stroke:none;stroke-width:1;marker:none;visibility:visible;display:inline;overflow:visible;enable-background:accumulate" />
  </g>
</svg>
