<?xml version="1.0" encoding="UTF-8" standalone="no"?>
<!-- Created with Inkscape (http://www.inkscape.org/) -->

<svg
   xmlns:dc="http://purl.org/dc/elements/1.1/"
   xmlns:cc="http://creativecommons.org/ns#"
   xmlns:rdf="http://www.w3.org/1999/02/22-rdf-syntax-ns#"
   xmlns:svg="http://www.w3.org/2000/svg"
   xmlns="http://www.w3.org/2000/svg"
   xmlns:xlink="http://www.w3.org/1999/xlink"
   xmlns:sodipodi="http://sodipodi.sourceforge.net/DTD/sodipodi-0.dtd"
   xmlns:inkscape="http://www.inkscape.org/namespaces/inkscape"
   width="256"
   height="256"
   id="svg2"
   version="1.1"
   inkscape:version="0.48.3.1 r9886"
   sodipodi:docname="librefundraiser.svg">
  <defs
     id="defs4">
    <linearGradient
       id="linearGradient4350">
      <stop
         style="stop-color:#ffe17f;stop-opacity:1;"
         offset="0"
         id="stop4352" />
      <stop
         style="stop-color:#ff9000;stop-opacity:1;"
         offset="1"
         id="stop4354" />
    </linearGradient>
    <linearGradient
       id="linearGradient4311">
      <stop
         id="stop4313"
         offset="0"
         style="stop-color:#ffe17f;stop-opacity:1;" />
      <stop
         id="stop4315"
         offset="1"
         style="stop-color:#ff9000;stop-opacity:1;" />
    </linearGradient>
    <linearGradient
       id="linearGradient4303">
      <stop
         style="stop-color:#afc6e9;stop-opacity:1;"
         offset="0"
         id="stop4305" />
      <stop
         style="stop-color:#447acb;stop-opacity:1;"
         offset="1"
         id="stop4307" />
    </linearGradient>
    <linearGradient
       id="linearGradient4055">
      <stop
         style="stop-color:#ce9374;stop-opacity:1;"
         offset="0"
         id="stop4057" />
      <stop
         style="stop-color:#e0ac91;stop-opacity:1;"
         offset="1"
         id="stop4059" />
    </linearGradient>
    <linearGradient
       id="linearGradient4002">
      <stop
         id="stop4004"
         offset="0"
         style="stop-color:#ffffff;stop-opacity:1;" />
      <stop
         id="stop4006"
         offset="1"
         style="stop-color:#ffffff;stop-opacity:0;" />
    </linearGradient>
    <linearGradient
       id="linearGradient3925">
      <stop
         style="stop-color:#ff4c4c;stop-opacity:1;"
         offset="0"
         id="stop3927" />
      <stop
         style="stop-color:#c70000;stop-opacity:1;"
         offset="1"
         id="stop3929" />
    </linearGradient>
    <linearGradient
       id="linearGradient3917">
      <stop
         style="stop-color:#ffe17f;stop-opacity:1;"
         offset="0"
         id="stop3919" />
      <stop
         style="stop-color:#ff9000;stop-opacity:1;"
         offset="1"
         id="stop3921" />
    </linearGradient>
    <linearGradient
       id="linearGradient3925-0">
      <stop
         style="stop-color:#ff4c4c;stop-opacity:1;"
         offset="0"
         id="stop3927-9" />
      <stop
         style="stop-color:#c70000;stop-opacity:1;"
         offset="1"
         id="stop3929-4" />
    </linearGradient>
    <linearGradient
       gradientTransform="translate(-28.131004,-291.09259)"
       y2="452.59372"
       x2="58.428551"
       y1="290.71933"
       x1="58.428551"
       gradientUnits="userSpaceOnUse"
       id="linearGradient3950"
       xlink:href="#linearGradient3925-0"
       inkscape:collect="always" />
    <linearGradient
       id="linearGradient3925-2">
      <stop
         style="stop-color:#ff4c4c;stop-opacity:1;"
         offset="0"
         id="stop3927-4" />
      <stop
         style="stop-color:#c70000;stop-opacity:1;"
         offset="1"
         id="stop3929-5" />
    </linearGradient>
    <linearGradient
       gradientTransform="translate(-28.131004,-291.09259)"
       y2="452.59372"
       x2="58.428551"
       y1="290.71933"
       x1="58.428551"
       gradientUnits="userSpaceOnUse"
       id="linearGradient3950-5"
       xlink:href="#linearGradient3925-2"
       inkscape:collect="always" />
    <linearGradient
       id="linearGradient3925-1">
      <stop
         style="stop-color:#ff4c4c;stop-opacity:1;"
         offset="0"
         id="stop3927-1" />
      <stop
         style="stop-color:#c70000;stop-opacity:1;"
         offset="1"
         id="stop3929-52" />
    </linearGradient>
    <linearGradient
       gradientTransform="translate(-28.131004,-291.09259)"
       y2="452.59372"
       x2="58.428551"
       y1="290.71933"
       x1="58.428551"
       gradientUnits="userSpaceOnUse"
       id="linearGradient3950-7"
       xlink:href="#linearGradient3925-1"
       inkscape:collect="always" />
    <linearGradient
       id="linearGradient4055-4">
      <stop
         style="stop-color:#ce9374;stop-opacity:1;"
         offset="0"
         id="stop4057-2" />
      <stop
         style="stop-color:#e0ac91;stop-opacity:1;"
         offset="1"
         id="stop4059-3" />
    </linearGradient>
    <linearGradient
       gradientTransform="translate(-302.64974,-442.57644)"
       y2="469.24405"
       x2="305.57141"
       y1="441.96936"
       x1="305.57141"
       gradientUnits="userSpaceOnUse"
       id="linearGradient4078"
       xlink:href="#linearGradient4055-4"
       inkscape:collect="always" />
    <linearGradient
       id="linearGradient4055-1">
      <stop
         style="stop-color:#ce9374;stop-opacity:1;"
         offset="0"
         id="stop4057-6" />
      <stop
         style="stop-color:#e0ac91;stop-opacity:1;"
         offset="1"
         id="stop4059-8" />
    </linearGradient>
    <linearGradient
       gradientTransform="translate(-302.64974,-442.57644)"
       y2="469.24405"
       x2="305.57141"
       y1="441.96936"
       x1="305.57141"
       gradientUnits="userSpaceOnUse"
       id="linearGradient4078-5"
       xlink:href="#linearGradient4055-1"
       inkscape:collect="always" />
    <linearGradient
       id="linearGradient4055-18">
      <stop
         style="stop-color:#ce9374;stop-opacity:1;"
         offset="0"
         id="stop4057-9" />
      <stop
         style="stop-color:#e0ac91;stop-opacity:1;"
         offset="1"
         id="stop4059-2" />
    </linearGradient>
    <linearGradient
       gradientTransform="translate(-302.64974,-442.57644)"
       y2="469.24405"
       x2="305.57141"
       y1="441.96936"
       x1="305.57141"
       gradientUnits="userSpaceOnUse"
       id="linearGradient4078-7"
       xlink:href="#linearGradient4055-18"
       inkscape:collect="always" />
    <linearGradient
       id="linearGradient4055-43">
      <stop
         style="stop-color:#ce9374;stop-opacity:1;"
         offset="0"
         id="stop4057-1" />
      <stop
         style="stop-color:#e0ac91;stop-opacity:1;"
         offset="1"
         id="stop4059-23" />
    </linearGradient>
    <linearGradient
       gradientTransform="translate(-302.64974,-442.57644)"
       y2="469.24405"
       x2="305.57141"
       y1="441.96936"
       x1="305.57141"
       gradientUnits="userSpaceOnUse"
       id="linearGradient4078-3"
       xlink:href="#linearGradient4055-43"
       inkscape:collect="always" />
    <linearGradient
       inkscape:collect="always"
       xlink:href="#linearGradient4055-1"
       id="linearGradient4192"
       gradientUnits="userSpaceOnUse"
       gradientTransform="translate(-220.71833,-16.667517)"
       x1="305.57141"
       y1="441.96936"
       x2="305.57141"
       y2="469.24405" />
    <linearGradient
       inkscape:collect="always"
       xlink:href="#linearGradient4055"
       id="linearGradient4194"
       gradientUnits="userSpaceOnUse"
       gradientTransform="translate(-220.71833,-16.667517)"
       x1="305.57141"
       y1="441.96936"
       x2="305.57141"
       y2="469.24405" />
    <linearGradient
       inkscape:collect="always"
       xlink:href="#linearGradient4055-4"
       id="linearGradient4196"
       gradientUnits="userSpaceOnUse"
       gradientTransform="translate(-220.71833,-16.667517)"
       x1="305.57141"
       y1="441.96936"
       x2="305.57141"
       y2="469.24405" />
    <linearGradient
       inkscape:collect="always"
       xlink:href="#linearGradient4055-18"
       id="linearGradient4198"
       gradientUnits="userSpaceOnUse"
       gradientTransform="translate(-220.71833,-16.667517)"
       x1="305.57141"
       y1="441.96936"
       x2="305.57141"
       y2="469.24405" />
    <linearGradient
       inkscape:collect="always"
       xlink:href="#linearGradient3917"
       id="linearGradient4200"
       gradientUnits="userSpaceOnUse"
       x1="105.12686"
       y1="285.66019"
       x2="105.12686"
       y2="452.33536" />
    <linearGradient
       inkscape:collect="always"
       xlink:href="#linearGradient3925"
       id="linearGradient4202"
       gradientUnits="userSpaceOnUse"
       gradientTransform="matrix(1.0091564,0,0,1.0091564,-192.96802,-273.45855)"
       x1="58.428551"
       y1="290.71933"
       x2="58.428551"
       y2="452.59372" />
    <linearGradient
       inkscape:collect="always"
       xlink:href="#linearGradient4002"
       id="linearGradient4204"
       gradientUnits="userSpaceOnUse"
       gradientTransform="translate(-215,10)"
       x1="320.5419"
       y1="275.55865"
       x2="320.5419"
       y2="379.52863" />
    <linearGradient
       inkscape:collect="always"
       xlink:href="#linearGradient4055-18"
       id="linearGradient4228"
       gradientUnits="userSpaceOnUse"
       gradientTransform="translate(-1.01015,0)"
       x1="305.57141"
       y1="441.96936"
       x2="305.57141"
       y2="469.24405" />
    <linearGradient
       inkscape:collect="always"
       xlink:href="#linearGradient4055-4"
       id="linearGradient4231"
       gradientUnits="userSpaceOnUse"
       gradientTransform="translate(-1.01015,0)"
       x1="305.57141"
       y1="441.96936"
       x2="305.57141"
       y2="469.24405" />
    <linearGradient
       inkscape:collect="always"
       xlink:href="#linearGradient4055"
       id="linearGradient4234"
       gradientUnits="userSpaceOnUse"
       gradientTransform="translate(-1.01015,0)"
       x1="305.57141"
       y1="441.96936"
       x2="305.57141"
       y2="469.24405" />
    <linearGradient
       inkscape:collect="always"
       xlink:href="#linearGradient4055-1"
       id="linearGradient4237"
       gradientUnits="userSpaceOnUse"
       gradientTransform="translate(-1.01015,0)"
       x1="305.57141"
       y1="441.96936"
       x2="305.57141"
       y2="469.24405" />
    <linearGradient
       inkscape:collect="always"
       xlink:href="#linearGradient3917"
       id="linearGradient4239"
       gradientUnits="userSpaceOnUse"
       x1="105.12686"
       y1="285.66019"
       x2="105.12686"
       y2="452.33536" />
    <linearGradient
       inkscape:collect="always"
       xlink:href="#linearGradient3925"
       id="linearGradient4241"
       gradientUnits="userSpaceOnUse"
       gradientTransform="matrix(1.0091564,0,0,1.0091564,-192.96802,-273.45855)"
       x1="58.428551"
       y1="290.71933"
       x2="58.428551"
       y2="452.59372" />
    <linearGradient
       inkscape:collect="always"
       xlink:href="#linearGradient4002"
       id="linearGradient4243"
       gradientUnits="userSpaceOnUse"
       gradientTransform="translate(-215,10)"
       x1="320.5419"
       y1="275.55865"
       x2="320.5419"
       y2="379.52863" />
    <linearGradient
       inkscape:collect="always"
       xlink:href="#linearGradient4002"
       id="linearGradient4246"
       gradientUnits="userSpaceOnUse"
       gradientTransform="translate(-0.31995,0.857143)"
       x1="320.5419"
       y1="275.55865"
       x2="320.5419"
       y2="379.52863" />
    <linearGradient
       inkscape:collect="always"
       xlink:href="#linearGradient3925"
       id="linearGradient4249"
       gradientUnits="userSpaceOnUse"
       gradientTransform="matrix(1.0091564,0,0,1.0091564,213.71201,-12.52493)"
       x1="58.428551"
       y1="290.71933"
       x2="58.428551"
       y2="452.59372" />
    <linearGradient
       inkscape:collect="always"
       xlink:href="#linearGradient3917"
       id="linearGradient4252"
       gradientUnits="userSpaceOnUse"
       x1="105.12686"
       y1="285.66019"
       x2="105.12686"
       y2="452.33536"
       gradientTransform="translate(214.68005,-9.142857)" />
    <linearGradient
       id="linearGradient3917-1">
      <stop
         style="stop-color:#ffe17f;stop-opacity:1;"
         offset="0"
         id="stop3919-3" />
      <stop
         style="stop-color:#ff9000;stop-opacity:1;"
         offset="1"
         id="stop3921-8" />
    </linearGradient>
    <linearGradient
       y2="452.33536"
       x2="105.12686"
       y1="285.66019"
       x1="105.12686"
       gradientTransform="translate(-27.381208,-285.57644)"
       gradientUnits="userSpaceOnUse"
       id="linearGradient4269"
       xlink:href="#linearGradient3917-1"
       inkscape:collect="always" />
    <linearGradient
       inkscape:collect="always"
       xlink:href="#linearGradient4311"
       id="linearGradient4252-4"
       gradientUnits="userSpaceOnUse"
       x1="214.72841"
       y1="399.30234"
       x2="214.72841"
       y2="403.85504"
       gradientTransform="translate(214.68005,-9.142857)" />
    <linearGradient
       id="linearGradient3917-2">
      <stop
         style="stop-color:#ffe17f;stop-opacity:1;"
         offset="0"
         id="stop3919-7" />
      <stop
         style="stop-color:#ff9000;stop-opacity:1;"
         offset="1"
         id="stop3921-7" />
    </linearGradient>
    <linearGradient
       y2="452.33536"
       x2="105.12686"
       y1="285.66019"
       x1="105.12686"
       gradientTransform="translate(-27.381208,-285.57644)"
       gradientUnits="userSpaceOnUse"
       id="linearGradient4269-9"
       xlink:href="#linearGradient3917-2"
       inkscape:collect="always" />
    <linearGradient
       inkscape:collect="always"
       xlink:href="#linearGradient4303"
       id="linearGradient4309"
       x1="387.71704"
       y1="368.49268"
       x2="387.71704"
       y2="410.01965"
       gradientUnits="userSpaceOnUse" />
    <linearGradient
       inkscape:collect="always"
       xlink:href="#linearGradient4350"
       id="linearGradient4252-4-1"
       gradientUnits="userSpaceOnUse"
       x1="183.41368"
       y1="413.94955"
       x2="183.41368"
       y2="423.58286"
       gradientTransform="translate(214.68005,-9.142857)" />
    <linearGradient
       id="linearGradient4311-9">
      <stop
         id="stop4313-8"
         offset="0"
         style="stop-color:#ffe17f;stop-opacity:1;" />
      <stop
         id="stop4315-6"
         offset="1"
         style="stop-color:#ff9000;stop-opacity:1;" />
    </linearGradient>
    <linearGradient
       y2="403.85504"
       x2="214.72841"
       y1="399.30234"
       x1="214.72841"
       gradientTransform="translate(-214.55596,-399.74824)"
       gradientUnits="userSpaceOnUse"
       id="linearGradient4332"
       xlink:href="#linearGradient4311-9"
       inkscape:collect="always" />
    <linearGradient
       inkscape:collect="always"
       xlink:href="#linearGradient4303"
       id="linearGradient4357"
       gradientUnits="userSpaceOnUse"
       x1="387.71704"
       y1="368.49268"
       x2="387.71704"
       y2="410.01965" />
    <linearGradient
       inkscape:collect="always"
       xlink:href="#linearGradient4350"
       id="linearGradient4360"
       gradientUnits="userSpaceOnUse"
       gradientTransform="translate(214.68005,-9.142857)"
       x1="183.41368"
       y1="413.94955"
       x2="183.41368"
       y2="423.58286" />
    <linearGradient
       inkscape:collect="always"
       xlink:href="#linearGradient4311"
       id="linearGradient4363"
       gradientUnits="userSpaceOnUse"
       gradientTransform="translate(214.68005,-9.142857)"
       x1="214.72841"
       y1="399.30234"
       x2="214.72841"
       y2="403.85504" />
    <linearGradient
       inkscape:collect="always"
       xlink:href="#linearGradient4311"
       id="linearGradient4366"
       gradientUnits="userSpaceOnUse"
       gradientTransform="translate(214.68005,-9.142857)"
       x1="214.72841"
       y1="399.30234"
       x2="214.72841"
       y2="403.85504" />
    <linearGradient
       inkscape:collect="always"
       xlink:href="#linearGradient4311"
       id="linearGradient4369"
       gradientUnits="userSpaceOnUse"
       gradientTransform="translate(214.68005,-9.142857)"
       x1="214.72841"
       y1="399.30234"
       x2="214.72841"
       y2="403.85504" />
    <linearGradient
       inkscape:collect="always"
       xlink:href="#linearGradient4311"
       id="linearGradient4372"
       gradientUnits="userSpaceOnUse"
       gradientTransform="translate(214.68005,-9.142857)"
       x1="214.72841"
       y1="399.30234"
       x2="214.72841"
       y2="403.85504" />
    <linearGradient
       inkscape:collect="always"
       xlink:href="#linearGradient4311"
       id="linearGradient4375"
       gradientUnits="userSpaceOnUse"
       gradientTransform="translate(214.68005,-9.142857)"
       x1="214.72841"
       y1="399.30234"
       x2="214.72841"
       y2="403.85504" />
    <linearGradient
       inkscape:collect="always"
       xlink:href="#linearGradient4311"
       id="linearGradient4378"
       gradientUnits="userSpaceOnUse"
       gradientTransform="translate(214.68005,-9.142857)"
       x1="214.72841"
       y1="399.30234"
       x2="214.72841"
       y2="403.85504" />
    <linearGradient
       inkscape:collect="always"
       xlink:href="#linearGradient4311"
       id="linearGradient4381"
       gradientUnits="userSpaceOnUse"
       gradientTransform="translate(214.68005,-9.142857)"
       x1="214.72841"
       y1="399.30234"
       x2="214.72841"
       y2="403.85504" />
    <linearGradient
       inkscape:collect="always"
       xlink:href="#linearGradient4311"
       id="linearGradient4384"
       gradientUnits="userSpaceOnUse"
       gradientTransform="translate(214.68005,-9.142857)"
       x1="214.72841"
       y1="399.30234"
       x2="214.72841"
       y2="403.85504" />
    <linearGradient
       inkscape:collect="always"
       xlink:href="#linearGradient4311"
       id="linearGradient4387"
       gradientUnits="userSpaceOnUse"
       gradientTransform="translate(214.68005,-9.142857)"
       x1="214.72841"
       y1="399.30234"
       x2="214.72841"
       y2="403.85504" />
    <linearGradient
       inkscape:collect="always"
       xlink:href="#linearGradient4311"
       id="linearGradient4390"
       gradientUnits="userSpaceOnUse"
       gradientTransform="translate(214.68005,-9.142857)"
       x1="214.72841"
       y1="399.30234"
       x2="214.72841"
       y2="403.85504" />
    <linearGradient
       inkscape:collect="always"
       xlink:href="#linearGradient4350"
       id="linearGradient4396"
       gradientUnits="userSpaceOnUse"
       gradientTransform="translate(214.68005,-9.142857)"
       x1="183.41368"
       y1="413.94955"
       x2="183.41368"
       y2="423.58286" />
    <linearGradient
       inkscape:collect="always"
       xlink:href="#linearGradient4350"
       id="linearGradient4399"
       gradientUnits="userSpaceOnUse"
       gradientTransform="translate(214.68005,-9.142857)"
       x1="183.41368"
       y1="413.94955"
       x2="183.41368"
       y2="423.58286" />
    <linearGradient
       inkscape:collect="always"
       xlink:href="#linearGradient4350"
       id="linearGradient4402"
       gradientUnits="userSpaceOnUse"
       gradientTransform="translate(214.68005,-9.142857)"
       x1="183.41368"
       y1="413.94955"
       x2="183.41368"
       y2="423.58286" />
    <linearGradient
       inkscape:collect="always"
       xlink:href="#linearGradient4350"
       id="linearGradient4405"
       gradientUnits="userSpaceOnUse"
       gradientTransform="matrix(0.99700103,-0.07738832,0.07738832,0.99700103,183.5728,6.232497)"
       x1="183.41368"
       y1="413.94955"
       x2="183.41368"
       y2="423.58286" />
    <linearGradient
       inkscape:collect="always"
       xlink:href="#linearGradient4311"
       id="linearGradient4407"
       gradientUnits="userSpaceOnUse"
       gradientTransform="translate(214.42751,-9.142857)"
       x1="214.72841"
       y1="399.30234"
       x2="214.72841"
       y2="403.85504" />
  </defs>
  <sodipodi:namedview
     id="base"
     pagecolor="#ffffff"
     bordercolor="#666666"
     borderopacity="1.0"
     inkscape:pageopacity="0.0"
     inkscape:pageshadow="2"
     inkscape:zoom="0.98994949"
     inkscape:cx="231.49864"
     inkscape:cy="123.41646"
     inkscape:document-units="px"
     inkscape:current-layer="layer1"
     showgrid="false"
     fit-margin-top="0"
     fit-margin-left="0"
     fit-margin-right="0"
     fit-margin-bottom="0"
     inkscape:window-width="1920"
     inkscape:window-height="1018"
     inkscape:window-x="-8"
     inkscape:window-y="-8"
     inkscape:window-maximized="1" />
  <metadata
     id="metadata7">
    <rdf:RDF>
      <cc:Work
         rdf:about="">
        <dc:format>image/svg+xml</dc:format>
        <dc:type
           rdf:resource="http://purl.org/dc/dcmitype/StillImage" />
        <dc:title></dc:title>
      </cc:Work>
    </rdf:RDF>
  </metadata>
  <g
     inkscape:label="Layer 1"
     inkscape:groupmode="layer"
     id="layer1"
     transform="translate(-191.99998,-270.07648)">
    <path
       inkscape:connector-curvature="0"
       clip-rule="evenodd"
       d="m 338.58074,461.43144 c 0,0 -4.44,-5.393 -11.069,-3.321 -8.709,2.722 -6.642,9.962 -6.642,9.962 0,0 -17.542,-1.217 -15.498,21.032 1.863,20.268 24.353,14.391 24.353,14.391 0,0 7.123,8.835 15.497,8.855 11.235,0.027 15.497,-6.642 15.497,-6.642 0,0 11.862,7.928 21.032,5.535 12.033,-3.141 13.284,-14.39 13.284,-14.39 0,0 8.919,3.388 12.176,-6.642 2.859,-8.805 -4.428,-13.284 -4.428,-13.284 0,0 -0.553,-13.833 -7.749,-16.604 -12.393,-4.772 -16.604,3.321 -16.604,3.321 0,0 -1.872,-4.368 -5.535,-5.535 -5.096,-1.623 -8.855,2.214 -8.855,2.214 0,0 -4.202,-7.837 -12.176,-7.749 -11.033,0.124 -13.283,8.857 -13.283,8.857 z"
       id="path29"
       style="fill:#d0e8f7;fill-opacity:1;" />
    <path
       inkscape:connector-curvature="0"
       clip-rule="evenodd"
       d="m 332.63959,468.57644 c 0,0 0.574,-6.532 0,-14 -0.388,-5.045 1,-12 1,-12 h 5 c 0,0 -1.465,4.954 -1,11 0.213,2.767 -0.781,5.446 -1,8 -0.326,3.813 0,7 0,7 h -4 z"
       id="path19"
       style="color:#000000;fill:url(#linearGradient4237);fill-opacity:1;fill-rule:nonzero;marker:none;visibility:visible;display:inline;overflow:visible;enable-background:accumulate" />
    <path
       inkscape:connector-curvature="0"
       clip-rule="evenodd"
       d="m 303.63959,468.57644 c 0,0 -0.426,-6.532 -1,-14 -0.388,-5.045 -1,-12 -1,-12 h 5 c 0,0 0.535,5.954 1,12 0.531,6.897 1,14 1,14 h -5 z"
       id="path21"
       style="fill:url(#linearGradient4234);fill-opacity:1" />
    <path
       inkscape:connector-curvature="0"
       clip-rule="evenodd"
       d="m 315.63959,468.57644 c 0,0 0.574,-6.532 0,-14 -0.388,-5.045 0,-12 0,-12 h 5 c 0,0 -0.465,5.954 0,12 0.531,6.897 0,14 0,14 h -5 z"
       id="path23"
       style="color:#000000;fill:url(#linearGradient4231);fill-opacity:1;fill-rule:nonzero;marker:none;visibility:visible;display:inline;overflow:visible;enable-background:accumulate" />
    <path
       inkscape:connector-curvature="0"
       clip-rule="evenodd"
       d="m 303.63959,468.57644 c 0,0 -1.442,1.097 -2,5 -0.871,6.093 -1,16 -1,16 0,0 10.779,2.262 21,2 9.228,-0.237 18,-3 18,-3 0,0 -0.448,-5.483 -1,-11 -0.434,-4.34 -1,-9 -1,-9 h -34 z"
       id="path25"
       style="color:#000000;fill:url(#linearGradient4228);fill-opacity:1;fill-rule:nonzero;marker:none;visibility:visible;display:inline;overflow:visible;enable-background:accumulate" />
    <path
       inkscape:connector-curvature="0"
       clip-rule="evenodd"
       d="m 338.63959,474.57644 c 0,0 -11.834,1 -21,1 -9.333,0 -16,-1 -16,-1 l -1,12 c 0,0 9.566,0.535 20,0 8.952,-0.459 19,-2 19,-2 l -1,-10 z"
       id="path27"
       style="color:#000000;fill:#d38d5f;fill-opacity:1;fill-rule:nonzero;marker:none;visibility:visible;display:inline;overflow:visible;enable-background:accumulate" />
    <path
       inkscape:connector-curvature="0"
       clip-rule="evenodd"
       d="m 297.32979,443.43358 c 0,0 -2.594,-9.2 -12,-21 -10.104,-12.677 -27.45,-28.584 -37.101,-47.327 -10.716,-20.811 -6.91,-45.784 7.101,-64.673 15.033,-20.267 41.504,-34 65,-34 31.178,0 55.833,20.491 67,35 15.343,19.935 14.597,41.462 3.64,64.823 -7.118,15.175 -19.384,27.663 -27.64,39.177 -11.314,15.78 -18,28 -18,28 h -48 z"
       id="path3"
       style="fill:url(#linearGradient4252);fill-opacity:1" />
    <path
       inkscape:connector-curvature="0"
       style="color:#000000;fill:url(#linearGradient4249);fill-opacity:1;fill-rule:nonzero;marker:none;visibility:visible;display:inline;overflow:visible;enable-background:accumulate"
       d="m 323.43003,276.71487 1.125,2.84375 c 5.51029,13.97237 9.72934,31.87119 11.46875,48.71875 1.97138,19.09418 1.47091,29.31393 -2.9375,62.4375 -2.64547,19.87738 -4.46378,35.74851 -5.53125,47.84375 l -0.4375,4.875 5.96875,0 0.5,-1.78125 c 0.95114,-3.47066 4.07095,-12.8391 5.75,-17.28125 2.90131,-7.67583 4.70147,-11.76262 10.5625,-23.71875 3.1951,-6.5178 6.33474,-13.11441 6.96875,-14.65625 5.02771,-12.22678 7.3125,-24.23897 7.3125,-38.4375 0,-2.44687 -0.1062,-5.64217 -0.25,-7.09375 -1.20755,-12.19017 -8.01889,-31.31339 -15.625,-43.90625 -4.7901,-7.93061 -11.91331,-15.27783 -18,-18.5625 -1.66386,-0.8979 -2.03215,-0.99762 -4.34375,-1.125 l -2.53125,-0.15625 z m -8.28125,0.125 c -0.80389,0.0195 -1.82545,0.0996 -2.6875,0.21875 -0.77092,0.10657 -1.28997,0.19895 -1.15625,0.21875 0.13372,0.0197 -0.60303,0.55741 -1.625,1.1875 -4.37111,2.69497 -9.79097,7.2151 -13.5625,11.34375 -11.09709,12.14781 -17.28519,26.03238 -19.375,43.4375 -0.41803,3.48237 -0.41891,15.2218 0,20 0.83661,9.54245 2.35224,17.16229 5,25.125 1.94201,5.84025 3.96202,10.37897 8.5,19.21875 10.40321,20.26499 14.19909,29.29014 18.65625,44.28125 l 0.46875,1.5625 6.875,0 -0.0625,-0.40625 c -0.0786,-0.38546 -1.69227,-9.82542 -3.59375,-20.96875 -1.90147,-11.14334 -4.25478,-24.77588 -5.21875,-30.3125 -4.73298,-27.18414 -6.4091,-43.10998 -6.03125,-57.28125 0.46336,-17.37837 3.53086,-32.8345 9.125,-45.9375 1.39461,-3.26657 4.21568,-8.73541 5.34375,-10.375 0.40461,-0.58809 0.71875,-1.13895 0.71875,-1.21875 0,-0.0982 -0.57111,-0.11326 -1.375,-0.0937 z m -19.625,4.40625 c -0.4987,0.10483 -1.78126,0.60472 -3.84375,1.46875 -18.59018,7.78788 -34.28635,21.6845 -42.3125,37.46875 -1.88324,3.70357 -3.36888,7.29303 -4.5,10.875 -0.16264,0.52963 -0.3199,1.06113 -0.46875,1.59375 -0.0419,0.1467 -0.0843,0.29072 -0.125,0.4375 -0.0681,0.25038 -0.15372,0.49903 -0.21875,0.75 -0.16747,0.64634 -0.32178,1.28759 -0.46875,1.9375 -0.12374,0.54718 -0.23468,1.10688 -0.34375,1.65625 -0.0516,0.25969 -0.10799,0.52112 -0.15625,0.78125 -0.002,0.0101 0.002,0.0211 0,0.0312 -0.10567,0.57122 -0.19159,1.14567 -0.28125,1.71875 -0.099,0.65375 -0.20353,1.30759 -0.28125,1.96875 -0.29091,2.47462 -0.43412,4.99944 -0.4375,7.625 0.002,0.5938 0.0111,1.18789 0.0312,1.78125 0.002,0.12147 -0.003,0.25519 0,0.375 0.0117,0.28927 0.0153,0.58592 0.0312,0.875 0.42702,7.7212 2.41012,15.37747 6.09375,22.53125 9.651,18.743 26.98975,34.6355 37.09375,47.3125 5.6307,7.06382 8.78419,13.15298 10.4375,16.9375 0.0655,0.13907 0.15671,0.30321 0.21875,0.4375 0.0114,0.0266 0.02,0.0674 0.0312,0.0937 0.39773,0.8651 0.73601,1.62569 0.9375,2.1875 l 0.5,1.34375 3.4375,0 c -1.5e-4,-0.0758 -0.0233,-0.15559 -0.0625,-0.28125 -0.89493,-2.87273 -14.70931,-28.23444 -18.875,-34.65625 -0.92934,-1.43269 -3.73297,-5.55073 -6.21875,-9.125 -7.80248,-11.2191 -11.40331,-17.02032 -13.9375,-22.40625 -5.36299,-11.39799 -7.52637,-20.6515 -7.5625,-32.375 -0.0168,-5.45591 0.30113,-8.54434 1.40625,-13.21875 1.33252,-5.63628 4.37932,-12.89069 7.71875,-18.375 6.79552,-11.16021 18.55871,-22.75692 31.375,-30.9375 1.00558,-0.64186 1.27995,-0.91733 0.78125,-0.8125 z m 59.625,4 c -0.0627,0.0627 0.72478,0.69352 1.75,1.40625 10.60645,7.37366 19.07443,18.00073 23.6875,29.6875 3.80901,9.64976 5.13455,19.00099 4.53125,32.3125 -0.60749,13.40395 -1.96304,19.47068 -6.5,28.96875 -2.94699,6.1695 -6.02196,11.03876 -15.5,24.6875 -6.00231,8.64357 -9.612,14.79875 -14.625,24.9375 -2.44151,4.93795 -5.86745,12.56827 -7.15625,15.90625 -0.0572,0.14828 0.13043,0.23832 0.59375,0.28125 l 3.0625,0 1.71875,-2.96875 c 3.66413,-6.24117 10.28517,-16.46566 14.625,-22.59375 2.99581,-4.23025 4.45963,-6.16686 10.5,-13.78125 13.00485,-16.39371 17.40748,-23.39598 21.78125,-34.65625 3.63234,-9.35144 5.07115,-16.37366 5.09375,-24.96875 0.0177,-6.73608 -0.56044,-10.50105 -2.53125,-16.53125 -4.2931,-13.13581 -16.12024,-26.99967 -32.09375,-37.625 -2.96769,-1.97407 -8.74725,-5.25274 -8.9375,-5.0625 z"
       id="path3909" />
    <path
       inkscape:connector-curvature="0"
       clip-rule="evenodd"
       d="m 318.32979,380.43358 c 25.136,0 63,-13.102 63,-31 0,-30.627 -28.316,-73 -61,-73 -34.539,0 -61,53.629 -61,73 0,16.252 43.949,31 59,31 z"
       id="path17"
       style="fill:url(#linearGradient4246);fill-opacity:1" />
    <path
       inkscape:connector-curvature="0"
       clip-rule="evenodd"
       d="m 261.64974,474.57644 c 0,0 -4.012,-4.872 -10,-3 -7.868,2.459 -6,9 -6,9 0,0 -15.847,-1.1 -14,19 1.683,18.31 22,13 22,13 0,0 6.435,7.981 14,8 10.149,0.025 14,-6 14,-6 0,0 10.716,7.163 19,5 10.871,-2.837 12,-13 12,-13 0,0 8.058,3.061 11,-6 2.583,-7.954 -4,-12 -4,-12 0,0 -0.5,-12.497 -7,-15 -11.195,-4.311 -15,3 -15,3 0,0 -1.691,-3.946 -5,-5 -4.604,-1.466 -8,2 -8,2 0,0 -3.796,-7.08 -11,-7 -9.967,0.11 -12,8 -12,8 z"
       id="path31"
       style="fill:#ecf7fb;fill-opacity:0.84313726000000000;" />
    <path
       style="color:#000000;fill:url(#linearGradient4357);fill-opacity:1;fill-rule:nonzero;stroke:none;stroke-width:6.5;marker:none;visibility:visible;display:inline;overflow:visible;enable-background:accumulate"
       d="m 351.82214,357.66194 c -0.64231,1.09355 3.02954,1.52625 4.15936,2.24887 2.51522,1.17417 5.06122,2.22143 7.52237,3.5547 2.75526,1.32123 5.32475,2.86654 7.98003,4.38332 2.22428,1.40801 4.51213,2.89039 6.69727,4.44134 1.91591,1.36005 3.79384,2.86195 5.668,4.34265 2.27724,1.91338 4.47217,3.81681 6.54543,5.91794 1.45224,1.3273 2.64431,2.84421 4.09264,4.26895 1.40592,1.50257 2.50249,3.04205 3.82393,4.61717 1.55843,2.01675 3.21163,4.04899 3.36682,6.67653 -0.50808,-1.71814 -1.4849,-3.52214 -2.82125,-4.72879 -1.43982,0.58723 -2.55154,1.32608 -3.98395,1.79899 -1.54364,1.06048 -3.11833,1.65013 -4.56513,2.55633 -2.04074,0.90785 -4.0026,2.248 -5.97906,3.24277 -1.21402,1.18846 -4.24583,1.57918 -4.05361,3.37683 2.08236,3.09059 5.28636,6.13595 9.34373,5.63978 2.55315,-0.0242 4.81755,-1.59779 6.64511,-3.35565 l 1.46782,-1.76598 -1.50302,-0.91288 c -0.67555,-0.45251 -3.70462,-2.63207 -1.88223,-1.41695 2.42756,1.31301 5.13975,1.89124 7.86787,2.27483 3.44058,0.20106 6.0236,-0.40371 9.35468,-0.97763 2.48843,-0.83979 5.12018,-1.60315 7.31059,-3.12304 1.36242,-0.79688 3.0227,-1.55751 4.34264,-2.7635 1.53264,-1.30462 3.34596,-2.09648 5.03353,-3.10189 2.08245,0.22381 3.92937,-1.92796 1.05741,-2.53791 1.03169,-0.55519 3.92331,-2.00855 1.38928,-3.8151 -1.6261,-2.16933 -4.61653,-2.80532 -7.32512,-2.62843 -2.67869,0.51244 0.11369,-2.79345 1.02221,-3.80691 1.40164,-1.79569 2.99992,-3.23975 4.70924,-4.56119 2.41726,-1.66787 5.01813,-3.19514 7.85142,-4.07131 0.73632,-0.63933 3.7842,-0.75877 2.8783,-1.73769 -3.26949,-0.0392 -6.62511,-0.2921 -9.74981,0.65568 -2.13641,0.23447 -4.30687,1.07451 -6.29543,1.78358 -1.74861,0.69883 -3.88698,1.51926 -5.29436,2.47442 -2.59441,1.16151 -4.99662,2.93361 -7.35994,4.57528 -2.92677,1.08537 -0.36407,3.2378 0.97938,4.61166 1.7113,1.55124 3.44608,3.0907 5.53459,4.08069 -1.58139,-0.58898 -3.11269,-1.34396 -4.3638,-2.32647 -1.87169,-1.24077 -3.29451,-2.92531 -4.69971,-4.68993 -2.29006,-2.00046 -4.48921,-4.16208 -6.75613,-6.23718 -1.2579,-1.4052 -3.22397,-2.57191 -4.82904,-3.78891 -1.26476,-0.59576 -2.63054,-1.61323 -3.98315,-2.34438 -2.73284,-1.4765 -5.40557,-2.83746 -8.22706,-4.01131 -2.53846,-1.00016 -5.17356,-2.17723 -7.83772,-2.91108 -2.72752,-0.98664 -5.52191,-1.71425 -8.30869,-2.48763 -3.71322,-0.99999 -7.43997,-1.73959 -11.21905,-2.4889 -1.86298,-0.22114 -3.76434,-0.59753 -5.60639,-0.93167 z m 41.2199,44.0116 0.10985,0.0686 z m 0.19035,0.16919 0.0942,0.0735 z"
       id="path3044"
       inkscape:connector-curvature="0"
       sodipodi:nodetypes="cccccccccccccccccccccccccccccccccccccccccccccccccccccc" />
    <path
       style="color:#000000;fill:url(#linearGradient4407);fill-opacity:1;fill-rule:nonzero;stroke:none;stroke-width:1;marker:none;visibility:visible;display:inline;overflow:visible;enable-background:accumulate"
       d="m 431.49122,390.60543 c -0.78312,0.46232 -1.64184,0.87552 -2.37473,1.31255 -0.11725,0.92898 1.1423,1.20807 1.62713,1.83271 0.79528,0.49674 1.76854,0.16851 2.62758,0.46236 0.67452,0.28277 2.10095,0.9007 1.83406,-0.45466 -0.43107,-0.98589 -1.2495,-1.89281 -2.21613,-2.39919 -0.55908,-0.1307 -0.963,-0.56771 -1.49791,-0.75377 z"
       id="path3084"
       inkscape:connector-curvature="0" />
    <path
       style="color:#000000;fill:url(#linearGradient4405);fill-opacity:1;fill-rule:nonzero;stroke:none;stroke-width:1;marker:none;visibility:visible;display:inline;overflow:visible;enable-background:accumulate"
       d="m 399.40803,403.95423 c -0.66739,0.84997 -0.70184,2.02984 -1.41553,2.87477 -0.42995,1.23584 -1.99587,1.83262 -2.58005,2.57806 0.80941,0.7954 1.30787,1.88876 0.37396,2.8614 -0.40896,0.5713 -2.38755,2.20826 -0.57767,1.92309 1.77174,-0.65033 3.03786,-2.2912 3.64307,-4.04137 0.88531,-0.6577 0.71388,1.73142 0.0725,2.13596 -0.31514,0.60351 -2.3709,1.46813 -1.14368,1.97841 0.98055,-0.16347 1.83639,-0.87098 2.5982,-1.50357 1.38544,-1.24308 1.94594,-3.12508 1.98255,-4.93811 0.0354,-1.12589 0.76892,-2.0432 1.2643,-3.00564 -0.55779,-1.28582 -1.90215,0.17683 -1.93612,1.0726 -0.43772,1.02579 -1.24812,1.82034 -2.03174,2.5827 -1.18735,0.41127 -0.0522,-1.50881 0.0326,-2.04501 0.24389,-0.92924 1.78205,-2.38733 -0.0726,-2.39998 -0.0696,-0.0253 -0.14006,-0.0487 -0.20983,-0.0733 z"
       id="path3093"
       inkscape:connector-curvature="0" />
  </g>
</svg>
